<svg id="Layer_1" data-name="Layer 1" xmlns="http://www.w3.org/2000/svg" viewBox="0 0 390.48 118.87"><defs><style>.cls-1{font-size:72px;font-family:BerlinSansFB-Reg, Berlin Sans FB;}.cls-1,.cls-2{fill:#1b1464;stroke:#1b1464;stroke-miterlimit:10;stroke-width:2px;}</style></defs><text class="cls-1" transform="translate(1 103.25)"><tspan xml:space="preserve">d    s t i l l e d</tspan></text><g id="NewGroupe1"><g id="NewGroup2-3"><path class="cls-2" d="M80.27,94.84c-3.19-2.41-4.58-5.27-4.24-8.75a12.45,12.45,0,0,1,1.59-4.86,1.87,1.87,0,0,0-.55-2.56,1.84,1.84,0,0,0-1-.29,1.89,1.89,0,0,0-1.57.84,15.77,15.77,0,0,0-2.14,6.27C72,88.86,72.65,93.72,78,97.8a1.8,1.8,0,0,0,1.11.38,1.83,1.83,0,0,0,1.48-.74,1.85,1.85,0,0,0-.36-2.6Z"/><path class="cls-2" d="M91.19,99.05a14.82,14.82,0,0,1-10.5,4.26h-.27a15.05,15.05,0,0,1-12.64-22.8L81.21,58.17,93.84,81a14.87,14.87,0,0,1,1.92,7.28,15.27,15.27,0,0,1-4.57,10.8ZM82.58,54.43a1.52,1.52,0,0,0-1.3-.78h0a1.51,1.51,0,0,0-1.29.73L65.2,79A18.07,18.07,0,0,0,93.3,101.2a18.27,18.27,0,0,0,5.47-13,17.83,17.83,0,0,0-2.29-8.74L82.58,54.43Z"/><path class="cls-2" d="M73.1,18.73,81,5.52,88.52,19a8.91,8.91,0,0,1-7.77,13.22h-.17A8.91,8.91,0,0,1,73.1,18.73Zm7.43,16.5h0A11.91,11.91,0,0,0,91.15,17.54L82.41,1.78A1.51,1.51,0,0,0,81.12,1h0a1.51,1.51,0,0,0-1.29.73L70.52,17.18a11.91,11.91,0,0,0,10,18Z"/></g></g></svg>